<svg width="101" height="37" viewBox="0 0 101 37" fill="none" xmlns="http://www.w3.org/2000/svg">
<path d="M0 13.5609V0.115248H5.80084C7.29907 0.115248 8.45796 0.416175 9.2775 1.01803C10.1099 1.61988 10.526 2.47144 10.526 3.5727C10.526 4.30261 10.3532 4.91727 10.0074 5.41668C9.67447 5.91609 9.21348 6.29385 8.62443 6.54996C8.04819 6.80606 7.41432 6.93412 6.72283 6.93412L7.04937 6.47312C7.90733 6.47312 8.64364 6.60758 9.2583 6.87649C9.88576 7.1326 10.3724 7.52317 10.7181 8.04819C11.0639 8.5604 11.2367 9.20067 11.2367 9.969C11.2367 11.1087 10.8142 11.9922 9.969 12.6197C9.13665 13.2472 7.87531 13.5609 6.185 13.5609H0ZM1.4214 12.3892H6.1658C7.34389 12.3892 8.24667 12.1907 8.87414 11.7938C9.5016 11.384 9.81533 10.7373 9.81533 9.85375C9.81533 8.98298 9.5016 8.34911 8.87414 7.95215C8.24667 7.54237 7.34389 7.33749 6.1658 7.33749H1.26773V6.1658H5.7048C6.78045 6.1658 7.6128 5.96091 8.20185 5.55114C8.8037 5.14136 9.10463 4.53311 9.10463 3.72637C9.10463 2.90682 8.8037 2.29857 8.20185 1.9016C7.6128 1.49183 6.78045 1.28694 5.7048 1.28694H1.4214V12.3892Z" fill="#4B766E"/>
<path d="M12.3298 13.5609L18.4764 0.115248H19.8786L26.0252 13.5609H24.5269L18.8797 0.941197H19.456L13.8088 13.5609H12.3298ZM14.75 9.969L15.1726 8.81651H22.9903L23.4129 9.969H14.75Z" fill="#4B766E"/>
<path d="M28.2494 13.5609V0.115248H29.6708V12.3316H37.2004V13.5609H28.2494Z" fill="#4B766E"/>
<path d="M37.4091 13.5609L43.5557 0.115248H44.9579L51.1045 13.5609H49.6062L43.9591 0.941197H44.5353L38.8881 13.5609H37.4091ZM39.8293 9.969L40.2519 8.81651H48.0696L48.4922 9.969H39.8293Z" fill="#4B766E"/>
<path d="M53.3287 13.5609V0.115248H54.5004L63.7779 11.7938H63.1632V0.115248H64.5654V13.5609H63.3937L54.1354 1.88239H54.7501V13.5609H53.3287Z" fill="#4B766E"/>
<path d="M74.7933 13.6762C73.7817 13.6762 72.8469 13.5097 71.9889 13.1767C71.1309 12.831 70.3882 12.3508 69.7608 11.7361C69.1333 11.1215 68.6403 10.398 68.2817 9.56563C67.936 8.73328 67.7631 7.82409 67.7631 6.83808C67.7631 5.85206 67.936 4.94288 68.2817 4.11053C68.6403 3.27818 69.1333 2.55468 69.7608 1.94002C70.401 1.32536 71.1501 0.851558 72.0081 0.518618C72.8661 0.172873 73.8009 0 74.8125 0C75.7857 0 76.7013 0.16647 77.5592 0.499411C78.4172 0.819545 79.1407 1.30615 79.7298 1.95922L78.827 2.862C78.2763 2.29857 77.6681 1.8952 77.0022 1.6519C76.3363 1.39579 75.6192 1.26773 74.8509 1.26773C74.0442 1.26773 73.295 1.40859 72.6036 1.69031C71.9121 1.95923 71.3102 2.34979 70.798 2.862C70.2858 3.36142 69.8824 3.95046 69.5879 4.62915C69.3062 5.29503 69.1653 6.03134 69.1653 6.83808C69.1653 7.64482 69.3062 8.38753 69.5879 9.06622C69.8824 9.7321 70.2858 10.3211 70.798 10.8334C71.3102 11.3328 71.9121 11.7233 72.6036 12.0051C73.295 12.274 74.0442 12.4084 74.8509 12.4084C75.6192 12.4084 76.3363 12.2804 77.0022 12.0243C77.6681 11.7682 78.2763 11.3584 78.827 10.7949L79.7298 11.6977C79.1407 12.3508 78.4172 12.8438 77.5592 13.1767C76.7013 13.5097 75.7793 13.6762 74.7933 13.6762Z" fill="#4B766E"/>
<path d="M84.0276 6.12738H91.1346V7.33749H84.0276V6.12738ZM84.1812 12.3316H92.2678V13.5609H82.7598V0.115248H91.9797V1.34457H84.1812V12.3316Z" fill="#4B766E"/>
<path d="M0 36.8847V23.4391H5.80084C7.29907 23.4391 8.45796 23.74 9.2775 24.3419C10.1099 24.9437 10.526 25.7953 10.526 26.8965C10.526 27.6264 10.3532 28.2411 10.0074 28.7405C9.67447 29.2399 9.21348 29.6177 8.62443 29.8738C8.04819 30.1299 7.41432 30.2579 6.72283 30.2579L7.04937 29.797C7.90733 29.797 8.64364 29.9314 9.2583 30.2003C9.88576 30.4564 10.3724 30.847 10.7181 31.372C11.0639 31.8842 11.2367 32.5245 11.2367 33.2928C11.2367 34.4325 10.8142 35.3161 9.969 35.9435C9.13665 36.571 7.87531 36.8847 6.185 36.8847H0ZM1.4214 35.713H6.1658C7.34389 35.713 8.24667 35.5146 8.87414 35.1176C9.5016 34.7078 9.81533 34.0611 9.81533 33.1776C9.81533 32.3068 9.5016 31.6729 8.87414 31.276C8.24667 30.8662 7.34389 30.6613 6.1658 30.6613H1.26773V29.4896H5.7048C6.78045 29.4896 7.6128 29.2847 8.20185 28.875C8.8037 28.4652 9.10463 27.8569 9.10463 27.0502C9.10463 26.2307 8.8037 25.6224 8.20185 25.2254C7.6128 24.8157 6.78045 24.6108 5.7048 24.6108H1.4214V35.713Z" fill="#4B766E"/>
<path d="M20.3588 37C19.3471 37 18.4059 36.8335 17.5352 36.5006C16.6772 36.1548 15.9281 35.6746 15.2878 35.06C14.6604 34.4325 14.1674 33.709 13.8088 32.8895C13.4631 32.0571 13.2902 31.1479 13.2902 30.1619C13.2902 29.1759 13.4631 28.2731 13.8088 27.4536C14.1674 26.6212 14.6604 25.8977 15.2878 25.2831C15.9281 24.6556 16.6772 24.1754 17.5352 23.8424C18.3931 23.4967 19.3343 23.3238 20.3588 23.3238C21.3704 23.3238 22.3052 23.4967 23.1631 23.8424C24.0211 24.1754 24.7638 24.6492 25.3913 25.2638C26.0316 25.8785 26.5246 26.602 26.8703 27.4344C27.2289 28.2667 27.4081 29.1759 27.4081 30.1619C27.4081 31.1479 27.2289 32.0571 26.8703 32.8895C26.5246 33.7218 26.0316 34.4453 25.3913 35.06C24.7638 35.6746 24.0211 36.1548 23.1631 36.5006C22.3052 36.8335 21.3704 37 20.3588 37ZM20.3588 35.7323C21.1655 35.7323 21.9082 35.5978 22.5869 35.3289C23.2784 35.0472 23.8738 34.6566 24.3733 34.1572C24.8855 33.645 25.2824 33.0559 25.5642 32.39C25.8459 31.7114 25.9867 30.9686 25.9867 30.1619C25.9867 29.3552 25.8459 28.6189 25.5642 27.953C25.2824 27.2743 24.8855 26.6852 24.3733 26.1858C23.8738 25.6736 23.2784 25.2831 22.5869 25.0141C21.9082 24.7324 21.1655 24.5916 20.3588 24.5916C19.552 24.5916 18.8029 24.7324 18.1114 25.0141C17.4199 25.2831 16.8181 25.6736 16.3059 26.1858C15.8065 26.6852 15.4095 27.2743 15.115 27.953C14.8332 28.6189 14.6924 29.3552 14.6924 30.1619C14.6924 30.9558 14.8332 31.6922 15.115 32.3708C15.4095 33.0495 15.8065 33.645 16.3059 34.1572C16.8181 34.6566 17.4199 35.0472 18.1114 35.3289C18.8029 35.5978 19.552 35.7323 20.3588 35.7323Z" fill="#4B766E"/>
<path d="M33.0188 36.8847V24.6684H28.2937V23.4391H39.1654V24.6684H34.4402V36.8847H33.0188Z" fill="#4B766E"/>
<path d="M38.6096 36.8847L44.7562 23.4391H46.1584L52.305 36.8847H50.8067L45.1596 24.265H45.7358L40.0886 36.8847H38.6096ZM41.0298 33.2928L41.4524 32.1403H49.2701L49.6927 33.2928H41.0298Z" fill="#4B766E"/>
<path d="M54.5292 36.8847V23.4391H55.7009L64.9784 35.1176H64.3637V23.4391H65.7659V36.8847H64.5942L55.3359 25.2062H55.9506V36.8847H54.5292Z" fill="#4B766E"/>
<path d="M70.1545 36.8847V23.4391H71.5759V36.8847H70.1545Z" fill="#4B766E"/>
<path d="M81.79 37C80.7783 37 79.8436 36.8335 78.9856 36.5006C78.1276 36.1548 77.3849 35.6746 76.7575 35.06C76.13 34.4453 75.637 33.7218 75.2784 32.8895C74.9327 32.0571 74.7598 31.1479 74.7598 30.1619C74.7598 29.1759 74.9327 28.2667 75.2784 27.4344C75.637 26.602 76.13 25.8785 76.7575 25.2638C77.3977 24.6492 78.1468 24.1754 79.0048 23.8424C79.8628 23.4967 80.7976 23.3238 81.8092 23.3238C82.7824 23.3238 83.698 23.4903 84.5559 23.8232C85.4139 24.1434 86.1374 24.63 86.7265 25.2831L85.8237 26.1858C85.273 25.6224 84.6648 25.219 83.9989 24.9757C83.333 24.7196 82.6159 24.5916 81.8476 24.5916C81.0409 24.5916 80.2917 24.7324 79.6003 25.0141C78.9088 25.2831 78.3069 25.6736 77.7947 26.1858C77.2825 26.6852 76.8791 27.2743 76.5846 27.953C76.3029 28.6189 76.162 29.3552 76.162 30.1619C76.162 30.9686 76.3029 31.7114 76.5846 32.39C76.8791 33.0559 77.2825 33.645 77.7947 34.1572C78.3069 34.6566 78.9088 35.0472 79.6003 35.3289C80.2917 35.5978 81.0409 35.7323 81.8476 35.7323C82.6159 35.7323 83.333 35.6042 83.9989 35.3481C84.6648 35.092 85.273 34.6822 85.8237 34.1188L86.7265 35.0216C86.1374 35.6746 85.4139 36.1676 84.5559 36.5006C83.698 36.8335 82.776 37 81.79 37Z" fill="#4B766E"/>
<path d="M87.2676 36.8847L93.4142 23.4391H94.8164L100.963 36.8847H99.4647L93.8175 24.265H94.3938L88.7466 36.8847H87.2676ZM89.6878 33.2928L90.1104 32.1403H97.9281L98.3507 33.2928H89.6878Z" fill="#4B766E"/>
</svg>
